<?xml version="1.0" standalone="no"?>
<!DOCTYPE svg PUBLIC "-//W3C//DTD SVG 20010904//EN"
 "http://www.w3.org/TR/2001/REC-SVG-20010904/DTD/svg10.dtd">
<svg version="1.0" xmlns="http://www.w3.org/2000/svg"
 width="290.000000pt" height="290.000000pt" viewBox="0 0 290.000000 290.000000"
 preserveAspectRatio="xMidYMid meet">
<metadata>
Created by potrace 1.14, written by Peter Selinger 2001-2017
</metadata>
<g transform="translate(0.000000,290.000000) scale(0.100000,-0.100000)"
fill="#000000" stroke="none">
<path d="M1345 2683 c-173 -23 -382 -92 -500 -166 -123 -77 -183 -124 -277
-220 -232 -239 -351 -534 -352 -872 -1 -206 17 -309 83 -480 149 -387 510
-696 910 -780 135 -28 326 -38 426 -22 22 3 58 9 80 12 140 22 325 94 458 179
273 175 482 467 553 771 23 101 24 104 31 175 10 109 3 325 -12 350 -2 3 -6
25 -10 49 -10 70 -60 212 -108 307 -172 342 -489 588 -870 675 -88 20 -329 33
-412 22z"/>
<path d="M2735 61 c-26 -11 -60 -49 -51 -58 4 -4 17 5 29 21 30 38 96 46 150
18 20 -11 37 -16 37 -12 0 4 -15 15 -34 24 -36 17 -98 20 -131 7z"/>
</g>
</svg>
